<svg width="35" height="35" viewBox="0 0 35 35" fill="none" xmlns="http://www.w3.org/2000/svg">
<g id="add">
<path id="Vector" d="M17.6875 0C14.0421 0.00432535 10.5472 1.45437 7.96956 4.03206C5.39187 6.60975 3.94183 10.1046 3.9375 13.75C3.9375 25.5151 16.4375 34.4019 16.9697 34.7742C17.1802 34.9212 17.4308 35 17.6875 35C17.9442 35 18.1948 34.9212 18.4053 34.7742C18.9375 34.4019 31.4375 25.5151 31.4375 13.75C31.4332 10.1046 29.9831 6.60975 27.4054 4.03206C24.8278 1.45437 21.3329 0.00432493 17.6875 0ZM17.6884 8.75045C18.6773 8.75045 19.644 9.0437 20.4663 9.59311C21.2885 10.1425 21.9294 10.9234 22.3078 11.837C22.6863 12.7507 22.7853 13.756 22.5923 14.7259C22.3994 15.6958 21.9232 16.5867 21.2239 17.286C20.5247 17.9853 19.6338 18.4615 18.6639 18.6544C17.694 18.8473 16.6886 18.7483 15.775 18.3699C14.8614 17.9914 14.0805 17.3505 13.5311 16.5283C12.9817 15.7061 12.6884 14.7394 12.6884 13.7505C12.6884 13.0938 12.8177 12.4437 13.069 11.837C13.3202 11.2304 13.6885 10.6792 14.1528 10.2149C14.6171 9.75058 15.1683 9.38228 15.775 9.13102C16.3816 8.87975 17.0318 8.75043 17.6884 8.75045Z" fill="#F4B13E"/>
</g>
</svg>
