<svg width="40" height="40" viewBox="0 0 40 40" fill="none" xmlns="http://www.w3.org/2000/svg">
<path d="M25.9856 28.6919H7.78285C7.17444 28.6919 6.64416 28.158 6.64416 27.4406C6.64416 26.7232 7.17444 26.1893 7.78285 26.1893H25.7204C26.6095 26.1893 27.1554 25.5219 27.2958 24.5043L29.8538 5.93531C30.0098 4.65068 30.4465 4 32.0375 4H37.5124C38.1363 4 38.6666 4.58393 38.6666 5.25128C38.6666 5.93531 38.1363 6.51925 37.5124 6.51925H32.2403L29.7446 24.838C29.4171 27.207 28.2472 28.6919 25.9856 28.6919ZM28.8556 22.7524H7.75157C5.47433 22.7524 4.30449 21.2509 3.97693 18.8652L2.7291 10.0395C2.69795 9.82262 2.66668 9.55568 2.66668 9.40552C2.66668 8.60471 3.22823 8.05414 4.08607 8.05414H30.2126L30.197 10.5734H5.31833L6.42574 18.5648C6.55059 19.5993 7.06529 20.2499 7.98556 20.2499H28.8867L28.8556 22.7524ZM24.7533 36.8001C23.3495 36.8001 22.2264 35.6156 22.2264 34.0974C22.2264 32.5959 23.3495 31.3946 24.7533 31.3946C26.1727 31.3946 27.2958 32.5959 27.2958 34.0974C27.2958 35.6156 26.1727 36.8001 24.7533 36.8001ZM10.1692 36.8001C8.74983 36.8001 7.62685 35.6156 7.62685 34.0974C7.62685 32.5959 8.74983 31.3946 10.1692 31.3946C11.5731 31.3946 12.7117 32.5959 12.7117 34.0974C12.7117 35.6156 11.5731 36.8001 10.1692 36.8001Z" fill="#F9F9F8"/>
</svg>
