<svg width="115" height="63" viewBox="0 0 115 63" fill="none" xmlns="http://www.w3.org/2000/svg">
<path d="M17.4577 61.0838C13.8559 61.0838 10.318 59.7239 7.75069 57.3503C6.43222 56.1315 3.95141 53.4626 2.1665 49.2778C-0.175137 43.7895 -0.620894 37.5282 0.840512 30.667C2.74767 21.7142 5.52378 15.199 9.58074 10.1603C16.647 1.38241 25.5998 0.0263316 30.3056 0H30.6178C34.7745 0 38.0415 0.443876 42.4295 2.71404C45.5253 4.31651 47.835 6.88008 49.2907 10.3352C49.6876 11.2775 50.4117 13.9144 50.359 15.2272C50.3478 15.5112 50.4794 15.6297 51.0681 15.8592C55.0235 17.4109 55.4222 17.6949 56.6053 18.5394C56.7934 18.6729 57.0021 18.8215 57.2504 18.9945C60.0115 20.9017 60.7431 23.0496 61.0723 26.1135C61.6516 31.5152 58.0723 34.5095 55.8868 35.8129C53.5245 37.2235 50.5885 38.5364 45.1661 38.6022C44.946 38.6041 44.7278 38.6059 44.5097 38.6059C39.6007 38.6059 35.9048 37.8856 32.5231 36.2737C32.3181 36.1759 32.1187 36.0649 31.9307 35.9427C31.7727 35.8392 31.626 35.7508 31.4962 35.67C30.5482 35.0869 30.1232 34.7446 30.8379 33.3622C31.2573 32.5515 32.2316 31.6055 33.5952 31.6055C34.0109 31.6055 34.434 31.6939 34.8553 31.8707C35.2052 32.0174 35.555 32.1773 35.8954 32.3334C36.7569 32.7265 37.5713 33.0989 38.3951 33.2813C41.0376 33.8625 43.21 34.1333 45.2281 34.1333C47.6864 34.1333 49.9377 33.7252 52.1139 32.8845C54.6229 31.9139 57.3294 29.4632 57.6435 26.657C57.8523 24.7931 56.9062 23.0966 54.9088 21.7537C53.6994 20.9412 52.2474 20.5387 50.8462 20.1512C48.9992 19.6396 47.2538 19.1563 46.5203 17.7532C46.1366 17.0178 46.0745 16.1244 46.003 15.0899C45.8187 12.4229 45.5911 9.10511 39.6722 6.28198C37.0446 5.02746 33.3507 4.50835 31.957 4.50835H31.8629C23.2036 4.65694 18.9887 7.75655 14.6345 13.0605C9.89483 18.8346 6.91936 27.3435 6.67485 35.8223C6.56576 39.6178 7.29176 47.0377 10.7092 50.773C12.1688 52.3699 14.6138 54.0739 17.1003 54.0739C19.9968 54.0739 22.3873 51.7454 24.0161 47.3368C25.201 44.1318 24.5033 33.3471 24.2399 29.2883C24.1666 28.1598 24.1384 27.6971 24.1478 27.5523C24.1986 26.7492 24.0989 26.1925 24.018 25.7448C23.8882 25.0207 23.7848 24.4508 24.5841 23.8057C24.9941 23.4747 25.5133 23.2941 26.0455 23.2941C26.7809 23.2941 27.4919 23.6364 28.0486 24.259C28.9138 25.2276 29.4009 26.4257 29.5815 28.0281C30.2605 34.0562 30.836 39.9545 30.426 45.8359C30.0103 51.7887 27.4768 56.4362 22.8951 59.6506C21.5748 60.5778 19.6451 61.0875 17.4614 61.0875L17.4577 61.0838Z" fill="#FEFDFD"/>
<path d="M41.5342 61.0837C38.1393 61.0837 35.3387 59.8668 33.8491 57.7471C32.6943 56.1033 32.3332 53.7786 32.9275 51.8244C33.2642 50.7166 34.8911 47.017 41.647 45.896C42.3185 45.785 43.0689 45.7286 43.8777 45.7286C45.9748 45.7286 48.0964 46.1048 49.381 46.686C49.3189 46.5054 49.2324 46.2872 49.1252 46.054C48.6945 45.1117 47.3986 44.5268 45.7416 44.5268C45.5197 44.5268 45.2921 44.5381 45.0645 44.5587C43.1348 44.7393 42.2338 45.1568 41.5097 45.4954C40.9869 45.738 40.5355 45.9487 39.9035 45.9487C39.5085 45.9487 39.0759 45.8678 38.538 45.6966L38.5136 45.6891L38.491 45.6778C37.4678 45.1869 36.896 44.6208 36.7907 44.0001C36.7418 43.7105 36.7757 43.2741 37.2139 42.8378C37.5713 42.4823 39.0063 41.9049 39.6439 41.6811C41.0169 41.1996 42.4445 40.9099 43.8871 40.8197C44.4137 40.7858 44.8896 40.7708 45.341 40.7708C47.4249 40.7708 49.0989 41.1225 50.9383 41.9444C52.5916 42.6836 53.69 44.3312 53.9514 46.4659C54.0549 47.3085 54.0135 48.8245 53.9684 50.4307C53.9176 52.2608 53.8348 55.287 54.1564 55.8268C54.8354 55.7685 55.0122 55.3735 55.6442 53.7222C55.9752 52.857 56.4285 51.6702 57.1582 50.1392C57.226 49.9962 57.3689 49.6972 57.6698 49.6972C57.7883 49.6972 57.903 49.7498 57.982 49.8401C58.2303 50.1222 58.2209 50.8746 57.6717 55.3133C57.636 55.5992 57.6021 55.8682 57.5739 56.1127L57.6153 56.1654C57.7394 56.3196 57.7168 56.423 57.619 56.8556C57.4667 57.5402 57.414 57.7716 57.0811 57.7716H57.0341C56.2536 59.0882 55.3696 59.754 54.3991 59.754C54.2166 59.754 54.0304 59.7295 53.848 59.6806C52.4223 59.3045 52.1966 59.0411 51.5552 58.0989C51.4236 57.9051 51.275 57.6851 51.085 57.4218C50.9459 57.2299 50.8556 57.1791 50.8274 57.1791C50.7258 57.1791 50.485 57.3954 50.2913 57.5685L50.1766 57.67C48.3898 59.248 46.4356 60.2919 44.3667 60.7753C43.494 60.9784 42.5141 61.0875 41.5342 61.0875V61.0837ZM44.9253 49.2778C42.1511 49.2778 39.2302 50.9404 38.2747 53.062C37.9531 53.7767 37.9775 54.4745 38.3424 55.0782C38.8766 55.9603 40.0859 56.5378 41.5812 56.6262C41.6922 56.6318 41.805 56.6356 41.9197 56.6356C44.0639 56.6356 46.6952 55.5202 48.1792 53.9855C48.7095 53.4344 48.9616 52.4075 48.8036 51.4313C48.6926 50.7448 48.4049 50.2313 48.0099 50.0226C47.0751 49.5279 46.035 49.2778 44.9234 49.2778H44.9253Z" fill="#FEFDFD"/>
<path d="M106.513 47.6622C105.608 47.6622 104.764 47.2258 104.194 46.4622C104.077 46.3061 103.963 46.1462 103.848 45.9882C103.6 45.644 103.342 45.2886 103.069 44.9669C101.941 43.6372 100.886 43.0447 99.6519 43.0447C99.3302 43.0447 98.986 43.0842 98.6268 43.1651C97.9685 43.4115 97.3742 43.5375 96.8626 43.5375C95.6795 43.5375 94.8896 42.8962 94.5755 41.6849C94.3761 40.9156 94.4758 40.1953 94.8651 39.6009C95.2752 38.9746 95.9748 38.5533 96.84 38.4123C97.3761 38.3257 97.8651 38.1997 98.3372 38.0793C99.0462 37.8969 99.7779 37.7088 100.645 37.6637C100.983 37.6204 101.324 37.5997 101.655 37.5997C104.794 37.5997 107.348 39.5257 108.661 42.883C108.697 42.9751 108.734 43.0673 108.772 43.1613C108.996 43.7181 109.25 44.3482 109.285 44.9858C109.346 46.0973 108.494 47.1995 107.305 47.5493C107.047 47.6246 106.782 47.6641 106.517 47.6641L106.513 47.6622Z" fill="#FEFDFD"/>
<path d="M111.636 43.7462C110.559 43.7462 109.771 43.182 109.363 42.1137L109.342 42.061L109.338 42.0046C109.304 41.508 109.511 40.9776 109.91 40.5507C110.527 39.8905 111.522 39.5256 112.712 39.5256C112.75 39.5256 112.848 39.5256 112.848 39.5256H112.868C114.215 39.7006 114.744 39.8774 114.962 41.0435C115.161 42.108 114.565 43.0578 113.514 43.3512C113.448 43.3701 113.371 43.3945 113.28 43.4227C112.88 43.5506 112.274 43.7443 111.635 43.7443L111.636 43.7462Z" fill="#FEFDFD"/>
<path d="M96.1987 37.2612C95.2827 37.2612 94.4326 36.6762 94.1297 35.8374C93.9379 35.3032 93.7141 34.4813 93.7423 33.5879C93.7837 32.2883 94.7636 31.3083 96.0219 31.3083C96.1084 31.3083 96.1949 31.314 96.2814 31.3215C97.6224 31.4645 98.4782 32.5704 98.3616 34.0092C98.3541 34.1033 98.3409 34.1973 98.3296 34.2763L98.3221 34.3271V34.8838C98.3183 36.065 97.6845 36.9546 96.667 37.2066C96.5184 37.2443 96.3604 37.2631 96.2005 37.2631L96.1987 37.2612Z" fill="#FEFDFD"/>
<path d="M108.343 39.5671C108.069 39.5671 107.809 39.5144 107.576 39.4129C106.933 39.1289 106.314 38.3709 106.197 37.7201C106.049 36.8982 106.673 35.9615 106.867 35.6945C107.19 35.2487 107.672 34.9628 108.136 34.6863C108.219 34.6374 108.302 34.5866 108.383 34.5377C108.736 34.3196 109.131 34.2048 109.524 34.2048C110.707 34.2048 111.638 35.1866 111.642 36.4374C111.644 37.1088 111.292 37.848 110.679 38.4649C109.991 39.1552 109.118 39.5671 108.345 39.5671H108.343Z" fill="#FEFDFD"/>
<path d="M102.481 37.0636C101.316 37.0636 100.318 36.0593 100.297 34.8706C100.273 33.3885 101.794 31.5321 103.056 31.5039H103.107C104.29 31.5039 105.234 32.4669 105.255 33.6951C105.281 35.2392 103.827 37.0336 102.526 37.0636H102.481Z" fill="#FEFDFD"/>
<path d="M69.978 61.68C69.6018 61.68 69.2275 61.6274 68.8626 61.5239C68.2213 61.3415 67.6928 61.159 67.2226 60.6418L67.2056 60.6211C67.1755 60.5835 67.1454 60.5459 67.1135 60.5083C66.6865 59.9892 66.2464 59.4531 66.3442 56.5661C66.1373 56.7805 65.9173 57.0137 65.6916 57.2544C64.1681 58.8738 62.2741 60.8901 60.6378 60.8901C60.5964 60.8901 60.5569 60.8901 60.5155 60.8863C58.1212 60.7584 55.3526 59.3403 55.441 55.7686C55.5294 52.4715 56.6692 49.5656 58.6478 47.587C61.5801 44.6209 63.1618 44.241 64.2113 44.241C64.3543 44.241 64.4841 44.2485 64.6026 44.2541L64.7098 44.2598C65.2646 44.2842 65.7047 44.4723 66.0169 44.8203C66.6207 45.4898 66.5567 46.5469 66.5191 47.1788C66.5116 47.2936 66.506 47.3914 66.506 47.4685C66.506 48.4183 65.2552 49.4189 63.6734 50.6847C61.9186 52.0878 59.9306 53.6771 59.8046 55.1705C59.7632 55.6727 59.94 56.1372 60.3481 56.5943C60.3594 56.6074 60.3763 56.6262 60.4422 56.6262C61.6233 56.6262 65.2872 52.3304 67.3204 49.622C67.3542 49.5806 67.4069 49.5054 67.484 49.3963C69.5266 46.5299 71.1046 45.1362 72.3102 45.1362C72.7804 45.1362 73.4312 45.3507 73.8562 46.3701C74.2587 47.3368 71.5127 51.6702 71.4864 51.7154C70.6551 52.9981 70.1209 54.7736 70.1209 56.2388C70.1209 56.3422 70.1491 56.677 70.5178 56.677C70.9146 56.677 71.5071 55.8814 72.329 54.7793C73.2544 53.5398 74.5202 51.8433 76.5063 49.8552L76.5214 49.8402L76.5383 49.827C80.6216 46.6033 81.893 46.1688 82.5984 46.1688C83.1645 46.1688 83.4297 46.4942 83.6046 46.7105C83.7494 46.8873 83.7852 46.9155 83.8736 46.9155C83.9977 46.9155 84.3757 46.9155 84.4416 47.2597C84.513 47.6283 84.2215 47.7431 83.4466 48.0534C83.0103 48.2264 81.9908 48.6327 81.8554 48.8546C81.5677 49.323 81.2442 49.8722 80.8699 50.5098C78.4191 54.689 74.3189 61.6857 69.9799 61.6857L69.978 61.68Z" fill="#FEFDFD"/>
<path d="M80.5972 62.436C77.3923 62.436 75.8707 59.5753 75.7841 56.739C75.6845 53.4513 76.8186 50.2576 78.816 48.1962C80.5295 46.4301 82.8598 45.4954 85.5551 45.4954C86.0986 45.4954 86.6648 45.533 87.2403 45.6063L87.3531 45.6214C88.6058 45.7813 90.4998 46.022 90.4998 47.9348C90.4998 49.6464 89.2152 52.9303 80.6649 55.7873L80.6066 56.438C80.5709 56.8819 80.6762 57.2317 80.9263 57.5026C81.2799 57.8844 81.9476 58.1045 82.7564 58.1045C85.2579 58.1045 88.3443 55.6274 90.385 53.9873C90.5957 53.818 90.7988 53.6563 90.9907 53.5039L91.4534 53.1372L92.0007 55.4468L91.8765 55.5917C89.0327 58.9019 84.577 62.4398 80.5991 62.4398L80.5972 62.436ZM86.1456 48.7059C84.5808 49.1178 82.5175 50.5548 81.2969 52.8212C84.2836 51.5291 86.1381 49.2664 86.1645 48.8037C86.1645 48.753 86.1532 48.721 86.1456 48.7059Z" fill="#FEFDFD"/>
<path d="M98.0738 61.332C96.1065 61.332 94.9291 59.5471 94.9291 57.8223C94.9291 55.2569 96.6218 53.2218 98.1472 51.4275L94.9686 52.131C93.8476 53.85 92.4614 55.1798 91.1185 56.4681C90.7348 56.8368 90.3361 57.2186 89.9524 57.6023L89.311 58.2437V54.8732L89.4502 54.7604C90.2458 54.1171 90.9793 53.3366 91.7298 52.3284C91.1448 52.1121 90.8966 51.6419 90.8966 50.82C90.8966 47.6771 95.2056 44.5813 96.4036 44.5813C97.0036 44.5813 97.5115 45.0703 97.5115 45.6496C97.5115 45.8922 97.4738 46.1217 97.4174 46.3305C98.0174 46.244 98.5741 46.1612 99.0801 46.086C100.643 45.8527 101.772 45.6835 102.511 45.6835C102.893 45.6835 103.365 45.7211 103.613 46.0201C104.26 46.8383 104.585 47.5643 104.674 48.3768V48.3975L104.676 48.4182C104.676 49.8307 103.807 50.5473 102.889 51.3053L102.83 51.3542C102.121 51.9654 99.791 54.0983 99.791 55.7045C99.791 56.1352 100.267 56.4681 100.677 56.4681C101.886 56.4681 103.684 54.9278 104.995 53.803C105.403 53.4532 105.789 53.1222 106.107 52.8814L106.59 52.5146L107.023 54.798L106.901 54.9353C105.706 56.2857 100.711 61.332 98.0701 61.332H98.0738Z" fill="#FEFDFD"/>
</svg>
