<svg width="35" height="29" viewBox="0 0 35 29" fill="none" xmlns="http://www.w3.org/2000/svg">
<g id="Group 28">
<path id="Vector" d="M34.9976 2.83443C34.9968 2.79922 34.995 2.76408 34.9922 2.72901C34.99 2.69902 34.987 2.66926 34.9833 2.63972C34.9793 2.60685 34.9741 2.57417 34.9683 2.5415C34.9629 2.51064 34.957 2.48002 34.9502 2.44972C34.9431 2.41878 34.935 2.38812 34.9264 2.3575C34.9178 2.32684 34.9089 2.29646 34.8989 2.26648C34.889 2.23657 34.8778 2.20714 34.8664 2.17766C34.8549 2.14811 34.8432 2.1188 34.8303 2.08996C34.8174 2.06116 34.8035 2.0328 34.7891 2.00447C34.7747 1.97603 34.7599 1.94794 34.7442 1.92033C34.7288 1.89335 34.7124 1.8668 34.6956 1.84042C34.6778 1.81241 34.6595 1.78487 34.6403 1.7579C34.6231 1.73361 34.6052 1.70966 34.5866 1.68605C34.5648 1.65824 34.5423 1.63109 34.5191 1.6046C34.5087 1.59261 34.4997 1.57984 34.4889 1.56805C34.4797 1.55808 34.4696 1.54961 34.4603 1.53988C34.4364 1.51484 34.4117 1.49078 34.3865 1.46705C34.364 1.44581 34.3413 1.4248 34.318 1.40478C34.2943 1.38457 34.2699 1.36538 34.2453 1.34627C34.2189 1.32586 34.1927 1.30557 34.1655 1.28666C34.1415 1.26992 34.1167 1.25441 34.0919 1.23875C34.0633 1.22067 34.0347 1.20263 34.0054 1.18618C33.9794 1.17154 33.9525 1.15833 33.9256 1.14488C33.8966 1.13032 33.8676 1.11568 33.838 1.10263C33.8088 1.08981 33.7789 1.07853 33.749 1.0671C33.7205 1.05626 33.6922 1.04523 33.6634 1.03577C33.6318 1.02537 33.5996 1.01662 33.5673 1.00784C33.5386 1.00001 33.51 0.992136 33.4811 0.985641C33.4491 0.978481 33.4167 0.972863 33.3841 0.967331C33.3532 0.96207 33.3223 0.95696 33.2913 0.953169C33.2608 0.949489 33.2301 0.946997 33.1992 0.944743C33.1647 0.942211 33.1303 0.940272 33.0957 0.939521C33.0822 0.93924 33.0692 0.9375 33.0556 0.9375H1.94444C1.93107 0.9375 1.9181 0.93924 1.90473 0.939518C1.86968 0.940231 1.83478 0.942207 1.79981 0.944819C1.76951 0.947034 1.73937 0.949447 1.70946 0.953048C1.67765 0.956924 1.646 0.962146 1.61436 0.967566C1.58263 0.973025 1.55098 0.978484 1.51973 0.985447C1.4899 0.99209 1.46047 1.00024 1.43088 1.00831C1.39947 1.0169 1.36813 1.02536 1.33744 1.03549C1.30769 1.04522 1.27849 1.05657 1.24914 1.06777C1.2201 1.07889 1.19106 1.08981 1.16274 1.10231C1.1322 1.11568 1.10245 1.13071 1.07262 1.1457C1.04659 1.15876 1.02056 1.17158 0.995322 1.18574C0.965256 1.20255 0.936062 1.22103 0.906787 1.23953C0.882577 1.25484 0.858365 1.27 0.834867 1.28633C0.807413 1.30548 0.780746 1.32601 0.754172 1.3467C0.729803 1.36561 0.705671 1.38452 0.682332 1.40454C0.658754 1.42467 0.635966 1.44584 0.61326 1.46728C0.588178 1.49094 0.563573 1.51491 0.539757 1.53983C0.530422 1.54956 0.520294 1.55803 0.511117 1.56804C0.500276 1.57983 0.491337 1.59261 0.480892 1.60459C0.457632 1.63114 0.435136 1.65829 0.413404 1.68605C0.394889 1.7097 0.376982 1.73365 0.359682 1.75789C0.340534 1.78487 0.322178 1.8124 0.304377 1.84041C0.287603 1.8668 0.271226 1.89334 0.255797 1.92032C0.240053 1.94789 0.225334 1.97602 0.210937 2.00442C0.196536 2.03274 0.182611 2.06118 0.169714 2.09006C0.156818 2.11878 0.145109 2.14802 0.133637 2.17749C0.122165 2.20704 0.111008 2.23655 0.10104 2.26646C0.0910697 2.29645 0.082208 2.32687 0.0735844 2.35749C0.0650401 2.38811 0.0568945 2.41877 0.0498491 2.4497C0.0429658 2.48 0.0371097 2.51063 0.0316506 2.54148C0.0258756 2.57416 0.0207327 2.60683 0.016698 2.63971C0.0129787 2.66926 0.00999833 2.69902 0.00775682 2.72899C0.00498814 2.76412 0.00319474 2.79926 0.00237699 2.83442C0.00205778 2.85038 0 2.86588 0 2.88194V24.919C0.0002653 25.3695 0.0947847 25.8149 0.277483 26.2267C0.460182 26.6385 0.727017 27.0075 1.06084 27.31L1.061 27.3101C1.65559 27.8562 2.43342 28.1594 3.24074 28.1597H31.7593C32.5663 28.1594 33.3438 27.8565 33.9384 27.3107L33.9407 27.3086C34.274 27.0061 34.5405 26.6373 34.7229 26.2258C34.9053 25.8142 34.9997 25.3691 35 24.919V2.88194C35 2.86588 34.9979 2.85038 34.9976 2.83443ZM3.88889 7.30208L11.7942 14.5487L3.88889 21.7953V7.30208ZM19.0368 13.0947L19.0362 13.0953L17.5 14.5034L6.94322 4.82639H28.0568L19.0368 13.0947ZM14.6718 17.1864L16.1861 18.5746C16.5447 18.9033 17.0135 19.0856 17.5 19.0856C17.9865 19.0856 18.4553 18.9033 18.8139 18.5746L20.3283 17.1864L28.0569 24.2708H6.94322L14.6718 17.1864ZM23.2058 14.5486L31.1111 7.30208V21.7951L23.2058 14.5486Z" fill="#F4B13E"/>
</g>
</svg>
