<svg width="35" height="35" viewBox="0 0 35 35" fill="none" xmlns="http://www.w3.org/2000/svg">
<g id="Group 27">
<path id="Vector" d="M19.5727 22.3376C19.3573 22.467 19.1138 22.5423 18.863 22.5571C18.6122 22.5719 18.3615 22.5257 18.1324 22.4226C15.696 21.3281 13.7457 19.3779 12.6511 16.9415C12.5481 16.7123 12.502 16.4617 12.5168 16.2108C12.5316 15.96 12.6068 15.7165 12.7361 15.501L14.5643 12.4539L12.3511 8.58057C11.3434 8.61217 10.3874 9.03347 9.68412 9.75578C8.98086 10.4781 8.58526 11.4451 8.58058 12.4532C8.57797 14.296 8.93868 16.1212 9.64208 17.8245C10.3455 19.5278 11.3778 21.0757 12.6799 22.3797C13.9821 23.6837 15.5285 24.7182 17.2308 25.424C18.9331 26.1299 20.7578 26.4932 22.6006 26.4932H22.6206C23.6287 26.4885 24.5957 26.0929 25.318 25.3896C26.0403 24.6864 26.4616 23.7303 26.4932 22.7227L22.6199 20.5094L19.5727 22.3376Z" fill="#F4B13E"/>
<path id="Subtract" fill-rule="evenodd" clip-rule="evenodd" d="M35 17.5C35 27.165 27.165 35 17.5 35C7.83502 35 0 27.165 0 17.5C0 7.83502 7.83502 0 17.5 0C27.165 0 35 7.83502 35 17.5ZM13.8217 7.74055C13.5107 7.19635 12.9246 6.86839 12.2981 6.88804C10.8521 6.9334 9.48013 7.53799 8.4709 8.57455C7.46167 9.61111 6.89395 10.9988 6.88724 12.4455L6.88722 12.4509C6.88429 14.5164 7.28857 16.5621 8.07694 18.4711C8.86531 20.3802 10.0223 22.1151 11.4817 23.5766C12.9412 25.0381 14.6744 26.1976 16.5823 26.9886C18.4902 27.7797 20.5354 28.1869 22.6008 28.1869H22.6208L22.6287 28.1869C24.0754 28.1802 25.463 27.6125 26.4996 26.6033C27.5362 25.594 28.1408 24.222 28.1861 22.776C28.2058 22.1495 27.8778 21.5634 27.3336 21.2525L23.4603 19.0392C22.9284 18.7353 22.274 18.7423 21.7487 19.0574L18.7626 20.849C16.7555 19.9289 15.1453 18.3187 14.2251 16.3115L16.0167 13.3254C16.3319 12.8002 16.3388 12.1457 16.0349 11.6139L13.8217 7.74055Z" fill="#F4B13E"/>
</g>
</svg>
