<svg width="115" height="64" viewBox="0 0 115 64" fill="none" xmlns="http://www.w3.org/2000/svg">
<path d="M17.4577 61.5838C13.8559 61.5838 10.318 60.2239 7.75069 57.8503C6.43222 56.6315 3.95141 53.9626 2.1665 49.7778C-0.175137 44.2895 -0.620894 38.0282 0.840512 31.167C2.74767 22.2142 5.52378 15.699 9.58074 10.6603C16.647 1.88241 25.5998 0.526332 30.3056 0.5H30.6178C34.7745 0.5 38.0415 0.943876 42.4295 3.21404C45.5253 4.81651 47.835 7.38008 49.2907 10.8352C49.6876 11.7775 50.4117 14.4144 50.359 15.7272C50.3478 16.0112 50.4794 16.1297 51.0681 16.3592C55.0235 17.9109 55.4222 18.1949 56.6053 19.0394C56.7934 19.1729 57.0021 19.3215 57.2504 19.4945C60.0115 21.4017 60.7431 23.5496 61.0723 26.6135C61.6516 32.0152 58.0723 35.0095 55.8868 36.3129C53.5245 37.7235 50.5885 39.0364 45.1661 39.1022C44.946 39.1041 44.7278 39.1059 44.5097 39.1059C39.6007 39.1059 35.9048 38.3856 32.5231 36.7737C32.3181 36.6759 32.1187 36.5649 31.9307 36.4427C31.7727 36.3392 31.626 36.2508 31.4962 36.17C30.5482 35.5869 30.1232 35.2446 30.8379 33.8622C31.2573 33.0515 32.2316 32.1055 33.5952 32.1055C34.0109 32.1055 34.434 32.1939 34.8553 32.3707C35.2052 32.5174 35.555 32.6773 35.8954 32.8334C36.7569 33.2265 37.5713 33.5989 38.3951 33.7813C41.0376 34.3625 43.21 34.6333 45.2281 34.6333C47.6864 34.6333 49.9377 34.2252 52.1139 33.3845C54.6229 32.4139 57.3294 29.9632 57.6435 27.157C57.8523 25.2931 56.9062 23.5966 54.9088 22.2537C53.6994 21.4412 52.2474 21.0387 50.8462 20.6512C48.9992 20.1396 47.2538 19.6563 46.5203 18.2532C46.1366 17.5178 46.0745 16.6244 46.003 15.5899C45.8187 12.9229 45.5911 9.60511 39.6722 6.78198C37.0446 5.52746 33.3507 5.00835 31.957 5.00835H31.8629C23.2036 5.15694 18.9887 8.25655 14.6345 13.5605C9.89483 19.3346 6.91936 27.8435 6.67485 36.3223C6.56576 40.1178 7.29176 47.5377 10.7092 51.273C12.1688 52.8699 14.6138 54.5739 17.1003 54.5739C19.9968 54.5739 22.3873 52.2454 24.0161 47.8368C25.201 44.6318 24.5033 33.8471 24.2399 29.7883C24.1666 28.6598 24.1384 28.1971 24.1478 28.0523C24.1986 27.2492 24.0989 26.6925 24.018 26.2448C23.8882 25.5207 23.7848 24.9508 24.5841 24.3057C24.9941 23.9747 25.5133 23.7941 26.0455 23.7941C26.7809 23.7941 27.4919 24.1364 28.0486 24.759C28.9138 25.7276 29.4009 26.9257 29.5815 28.5281C30.2605 34.5562 30.836 40.4545 30.426 46.3359C30.0103 52.2887 27.4768 56.9362 22.8951 60.1506C21.5748 61.0778 19.6451 61.5875 17.4614 61.5875L17.4577 61.5838Z" fill="white"/>
<path d="M41.5341 61.5837C38.1392 61.5837 35.3386 60.3668 33.849 58.2471C32.6941 56.6033 32.333 54.2786 32.9274 52.3244C33.264 51.2166 34.891 47.517 41.6469 46.396C42.3184 46.285 43.0688 46.2286 43.8776 46.2286C45.9747 46.2286 48.0963 46.6048 49.3809 47.186C49.3188 47.0054 49.2323 46.7872 49.1251 46.554C48.6944 45.6117 47.3985 45.0268 45.7415 45.0268C45.5195 45.0268 45.292 45.0381 45.0644 45.0587C43.1346 45.2393 42.2337 45.6568 41.5096 45.9954C40.9867 46.238 40.5353 46.4487 39.9034 46.4487C39.5084 46.4487 39.0758 46.3678 38.5379 46.1966L38.5134 46.1891L38.4909 46.1778C37.4677 45.6869 36.8959 45.1208 36.7906 44.5001C36.7417 44.2105 36.7755 43.7741 37.2138 43.3378C37.5711 42.9823 39.0062 42.4049 39.6438 42.1811C41.0168 41.6996 42.4444 41.4099 43.887 41.3197C44.4136 41.2858 44.8895 41.2708 45.3409 41.2708C47.4248 41.2708 49.0988 41.6225 50.9382 42.4444C52.5915 43.1836 53.6899 44.8312 53.9513 46.9659C54.0547 47.8085 54.0134 49.3245 53.9682 50.9307C53.9174 52.7608 53.8347 55.787 54.1563 56.3268C54.8353 56.2685 55.0121 55.8735 55.6441 54.2222C55.9751 53.357 56.4284 52.1702 57.1581 50.6392C57.2258 50.4962 57.3688 50.1972 57.6697 50.1972C57.7882 50.1972 57.9029 50.2498 57.9819 50.3401C58.2302 50.6222 58.2208 51.3746 57.6716 55.8133C57.6359 56.0992 57.602 56.3682 57.5738 56.6127L57.6152 56.6654C57.7393 56.8196 57.7167 56.923 57.6189 57.3556C57.4666 58.0402 57.4139 58.2716 57.081 58.2716H57.034C56.2534 59.5882 55.3694 60.254 54.3989 60.254C54.2165 60.254 54.0303 60.2295 53.8479 60.1806C52.4222 59.8045 52.1965 59.5411 51.5551 58.5989C51.4235 58.4051 51.2749 58.1851 51.0849 57.9218C50.9457 57.7299 50.8555 57.6791 50.8272 57.6791C50.7257 57.6791 50.4849 57.8954 50.2912 58.0685L50.1765 58.17C48.3897 59.748 46.4355 60.7919 44.3666 61.2753C43.4939 61.4784 42.514 61.5875 41.5341 61.5875V61.5837ZM44.9252 49.7778C42.151 49.7778 39.23 51.4404 38.2746 53.562C37.953 54.2767 37.9774 54.9745 38.3423 55.5782C38.8764 56.4603 40.0858 57.0378 41.5811 57.1262C41.692 57.1318 41.8049 57.1356 41.9196 57.1356C44.0638 57.1356 46.6951 56.0202 48.179 54.4855C48.7094 53.9344 48.9615 52.9075 48.8035 51.9313C48.6925 51.2448 48.4047 50.7313 48.0098 50.5226C47.075 50.0279 46.0349 49.7778 44.9233 49.7778H44.9252Z" fill="white"/>
<path d="M106.513 48.1621C105.608 48.1621 104.764 47.7257 104.194 46.9621C104.077 46.806 103.963 46.6461 103.848 46.4881C103.6 46.1439 103.342 45.7884 103.069 45.4668C101.941 44.1371 100.886 43.5446 99.6517 43.5446C99.3301 43.5446 98.9859 43.5841 98.6267 43.665C97.9684 43.9114 97.374 44.0374 96.8625 44.0374C95.6794 44.0374 94.8895 43.396 94.5754 42.1848C94.376 41.4155 94.4757 40.6952 94.865 40.1008C95.275 39.4745 95.9747 39.0532 96.8399 38.9121C97.3759 38.8256 97.865 38.6996 98.337 38.5792C99.0461 38.3968 99.7778 38.2087 100.645 38.1636C100.983 38.1203 101.324 38.0996 101.655 38.0996C104.794 38.0996 107.348 40.0256 108.661 43.3829C108.697 43.475 108.734 43.5672 108.772 43.6612C108.996 44.218 109.25 44.848 109.285 45.4856C109.346 46.5972 108.494 47.6994 107.305 48.0492C107.047 48.1244 106.782 48.1639 106.517 48.1639L106.513 48.1621Z" fill="#F4B13E"/>
<path d="M111.636 44.2462C110.559 44.2462 109.771 43.682 109.363 42.6137L109.342 42.561L109.338 42.5046C109.304 42.008 109.511 41.4776 109.91 41.0507C110.527 40.3905 111.522 40.0256 112.712 40.0256C112.75 40.0256 112.848 40.0256 112.848 40.0256H112.868C114.215 40.2006 114.744 40.3774 114.962 41.5435C115.161 42.608 114.565 43.5578 113.514 43.8512C113.448 43.8701 113.371 43.8945 113.28 43.9227C112.88 44.0506 112.274 44.2443 111.635 44.2443L111.636 44.2462Z" fill="#F4B13E"/>
<path d="M96.1988 37.7612C95.2828 37.7612 94.4327 37.1762 94.1299 36.3374C93.938 35.8032 93.7142 34.9813 93.7424 34.0879C93.7838 32.7883 94.7637 31.8083 96.022 31.8083C96.1085 31.8083 96.195 31.814 96.2815 31.8215C97.6226 31.9645 98.4783 33.0704 98.3617 34.5092C98.3542 34.6033 98.341 34.6973 98.3298 34.7763L98.3222 34.8271V35.3838C98.3185 36.565 97.6846 37.4546 96.6671 37.7066C96.5185 37.7443 96.3605 37.7631 96.2007 37.7631L96.1988 37.7612Z" fill="#F4B13E"/>
<path d="M108.343 40.0671C108.069 40.0671 107.809 40.0144 107.576 39.9129C106.933 39.6289 106.314 38.8709 106.197 38.2201C106.049 37.3982 106.673 36.4615 106.867 36.1945C107.19 35.7487 107.672 35.4628 108.136 35.1863C108.219 35.1374 108.302 35.0866 108.383 35.0377C108.736 34.8196 109.131 34.7048 109.524 34.7048C110.707 34.7048 111.638 35.6866 111.642 36.9374C111.644 37.6088 111.292 38.348 110.679 38.9649C109.991 39.6552 109.118 40.0671 108.345 40.0671H108.343Z" fill="#F4B13E"/>
<path d="M102.481 37.5636C101.316 37.5636 100.318 36.5593 100.297 35.3706C100.272 33.8885 101.794 32.0321 103.056 32.0039H103.107C104.29 32.0039 105.234 32.9669 105.255 34.1951C105.281 35.7392 103.827 37.5336 102.526 37.5636H102.481Z" fill="#F4B13E"/>
<path d="M69.978 62.18C69.6018 62.18 69.2275 62.1274 68.8626 62.0239C68.2213 61.8415 67.6928 61.659 67.2226 61.1418L67.2056 61.1211C67.1755 61.0835 67.1454 61.0459 67.1135 61.0083C66.6865 60.4892 66.2464 59.9531 66.3442 57.0661C66.1373 57.2805 65.9173 57.5137 65.6916 57.7544C64.1681 59.3738 62.2741 61.3901 60.6378 61.3901C60.5964 61.3901 60.5569 61.3901 60.5155 61.3863C58.1212 61.2584 55.3526 59.8403 55.441 56.2686C55.5294 52.9715 56.6692 50.0656 58.6478 48.087C61.5801 45.1209 63.1618 44.741 64.2113 44.741C64.3543 44.741 64.4841 44.7485 64.6026 44.7541L64.7098 44.7598C65.2646 44.7842 65.7047 44.9723 66.0169 45.3203C66.6207 45.9898 66.5567 47.0469 66.5191 47.6788C66.5116 47.7936 66.506 47.8914 66.506 47.9685C66.506 48.9183 65.2552 49.9189 63.6734 51.1847C61.9186 52.5878 59.9306 54.1771 59.8046 55.6705C59.7632 56.1727 59.94 56.6372 60.3481 57.0943C60.3594 57.1074 60.3763 57.1262 60.4422 57.1262C61.6233 57.1262 65.2872 52.8304 67.3204 50.122C67.3542 50.0806 67.4069 50.0054 67.484 49.8963C69.5266 47.0299 71.1046 45.6362 72.3102 45.6362C72.7804 45.6362 73.4312 45.8507 73.8562 46.8701C74.2587 47.8368 71.5127 52.1702 71.4864 52.2154C70.6551 53.4981 70.1209 55.2736 70.1209 56.7388C70.1209 56.8422 70.1491 57.177 70.5178 57.177C70.9146 57.177 71.5071 56.3814 72.329 55.2793C73.2544 54.0398 74.5202 52.3433 76.5063 50.3552L76.5214 50.3402L76.5383 50.327C80.6216 47.1033 81.893 46.6688 82.5984 46.6688C83.1645 46.6688 83.4297 46.9942 83.6046 47.2105C83.7494 47.3873 83.7852 47.4155 83.8736 47.4155C83.9977 47.4155 84.3757 47.4155 84.4416 47.7597C84.513 48.1283 84.2215 48.2431 83.4466 48.5534C83.0103 48.7264 81.9908 49.1327 81.8554 49.3546C81.5677 49.823 81.2442 50.3722 80.8699 51.0098C78.4191 55.189 74.3189 62.1857 69.9799 62.1857L69.978 62.18Z" fill="white"/>
<path d="M80.5972 62.936C77.3923 62.936 75.8707 60.0753 75.7841 57.239C75.6845 53.9513 76.8186 50.7576 78.816 48.6962C80.5295 46.9301 82.8598 45.9954 85.5551 45.9954C86.0986 45.9954 86.6648 46.033 87.2403 46.1063L87.3531 46.1214C88.6058 46.2813 90.4998 46.522 90.4998 48.4348C90.4998 50.1464 89.2152 53.4303 80.6649 56.2873L80.6066 56.938C80.5709 57.3819 80.6762 57.7317 80.9263 58.0026C81.2799 58.3844 81.9476 58.6045 82.7564 58.6045C85.2579 58.6045 88.3443 56.1274 90.385 54.4873C90.5957 54.318 90.7988 54.1563 90.9907 54.0039L91.4534 53.6372L92.0007 55.9468L91.8765 56.0917C89.0327 59.4019 84.577 62.9398 80.5991 62.9398L80.5972 62.936ZM86.1456 49.2059C84.5808 49.6178 82.5175 51.0548 81.2969 53.3212C84.2836 52.0291 86.1381 49.7664 86.1645 49.3037C86.1645 49.253 86.1532 49.221 86.1456 49.2059Z" fill="white"/>
<path d="M98.0738 61.832C96.1065 61.832 94.9291 60.0471 94.9291 58.3223C94.9291 55.7569 96.6218 53.7218 98.1472 51.9275L94.9686 52.631C93.8476 54.35 92.4614 55.6798 91.1185 56.9681C90.7348 57.3368 90.3361 57.7186 89.9524 58.1023L89.311 58.7437V55.3732L89.4502 55.2604C90.2458 54.6171 90.9793 53.8366 91.7298 52.8284C91.1448 52.6121 90.8966 52.1419 90.8966 51.32C90.8966 48.1771 95.2056 45.0813 96.4036 45.0813C97.0036 45.0813 97.5115 45.5703 97.5115 46.1496C97.5115 46.3922 97.4738 46.6217 97.4174 46.8305C98.0174 46.744 98.5741 46.6612 99.0801 46.586C100.643 46.3527 101.772 46.1835 102.511 46.1835C102.893 46.1835 103.365 46.2211 103.613 46.5201C104.26 47.3383 104.585 48.0643 104.674 48.8768V48.8975L104.676 48.9182C104.676 50.3307 103.807 51.0473 102.889 51.8053L102.83 51.8542C102.121 52.4654 99.791 54.5983 99.791 56.2045C99.791 56.6352 100.267 56.9681 100.677 56.9681C101.886 56.9681 103.684 55.4278 104.995 54.303C105.403 53.9532 105.789 53.6222 106.107 53.3814L106.59 53.0146L107.023 55.298L106.901 55.4353C105.706 56.7857 100.711 61.832 98.0701 61.832H98.0738Z" fill="white"/>
</svg>
