<svg width="18" height="24" viewBox="0 0 18 24" fill="none" xmlns="http://www.w3.org/2000/svg">
<path fill-rule="evenodd" clip-rule="evenodd" d="M8.64994 13.4632C8.8043 13.3744 8.99426 13.3743 9.14862 13.4631L16.4 17.6347V2.27033C16.3998 2.05352 16.3166 1.85329 16.1805 1.71165C16.0458 1.57148 15.8719 1.50033 15.6993 1.5H2.10075C1.92816 1.50033 1.75427 1.57148 1.61959 1.71165C1.48358 1.85319 1.40037 2.05325 1.40002 2.26989V17.6346L8.64994 13.4632ZM1.40002 18.7883V22.3855L8.39872 18.3385C8.70839 18.1595 9.09011 18.1595 9.3998 18.3385L16.4 22.3855V18.7883L8.89932 14.4734L1.40002 18.7883ZM17.4 22.6154C17.4 22.7694 17.3614 22.9208 17.2879 23.0545C17.2144 23.1882 17.1087 23.2997 16.9811 23.3778C16.8535 23.4559 16.7086 23.498 16.5606 23.4999C16.4126 23.5018 16.2667 23.4635 16.1373 23.3887L8.8993 19.2042L1.66283 23.3887C1.53344 23.4635 1.38752 23.5018 1.23952 23.4999C1.09151 23.498 0.946544 23.4559 0.81897 23.3778C0.691396 23.2997 0.585636 23.1883 0.512155 23.0545C0.438675 22.9208 0.400024 22.7694 0.400024 22.6154V2.26923C0.40054 1.80017 0.579812 1.35047 0.898512 1.01879C1.21721 0.687109 1.64931 0.500536 2.10002 0.5H15.7C16.1507 0.500536 16.5828 0.687109 16.9015 1.01879C17.2202 1.35047 17.3995 1.80017 17.4 2.26923V22.6154Z" fill="black" fill-opacity="0.6"/>
</svg>
