<svg width="59" height="59" viewBox="0 0 59 59" fill="none" xmlns="http://www.w3.org/2000/svg">
<g clip-path="url(#clip0_4716_6391)">
<path d="M49.7664 17.3827C55.9398 18.5937 59.603 24.4958 57.9485 30.5653C56.2941 36.6349 49.9483 40.5735 43.775 39.3625L18.7258 34.4486L25.4391 9.82063C27.0936 3.75107 33.4393 -0.187559 39.6127 1.02346C45.786 2.23448 49.4493 8.13656 47.7948 14.2061L47.0942 16.7765L35.551 14.512C32.647 13.9424 29.6619 15.7951 28.8837 18.6503C28.1054 21.5054 29.8286 24.2818 32.7326 24.8514L33.9996 25.1L33.66 26.3457C32.8817 29.2008 34.6049 31.9772 37.5089 32.5468C40.4129 33.1165 43.3979 31.2638 44.1762 28.4086L47.3129 16.9014L49.7664 17.3827Z" fill="#DEDEDE"/>
<path d="M6.89892 3.04105C9.95004 1.1358 13.9355 2.013 15.8007 5.00034C17.6659 7.98768 16.7046 11.9539 13.6535 13.8592C10.6024 15.7644 6.61688 14.8872 4.75167 11.8999C2.88645 8.91254 3.84781 4.94631 6.89892 3.04105Z" fill="#DEDEDE"/>
<path d="M3.24781 23.1118C6.13834 21.3068 9.99363 22.2653 11.8588 25.2526C13.7241 28.24 12.8929 32.1249 10.0023 33.9299C7.1118 35.7348 3.25653 34.7764 1.39132 31.789C-0.473899 28.8017 0.357281 24.9168 3.24781 23.1118Z" fill="#DEDEDE"/>
<path d="M13.4396 38.9756C16.4907 37.0704 20.4762 37.9476 22.3414 40.9349C24.2066 43.9223 23.2452 47.8885 20.1941 49.7938C17.143 51.699 13.1575 50.8218 11.2923 47.8345C9.4271 44.8471 10.3885 40.8809 13.4396 38.9756Z" fill="#DEDEDE"/>
<path d="M33.7265 46.2606C36.7776 44.3554 40.7631 45.2326 42.6283 48.2199C44.4935 51.2073 43.5321 55.1735 40.481 57.0787C37.4299 58.984 33.4444 58.1068 31.5792 55.1195C29.714 52.1321 30.6754 48.1659 33.7265 46.2606Z" fill="#DEDEDE"/>
</g>
<defs>
<clipPath id="clip0_4716_6391">
<rect width="59" height="59" fill="white"/>
</clipPath>
</defs>
</svg>
